<svg xmlns="http://www.w3.org/2000/svg" viewBox="0 0 700 520"><path fill="white" fill-rule="evenodd" d="M 10 12 L 12 15 L 19 15 L 26 20 L 33 10 L 40 19 L 47 14 L 54 19 L 61 13 L 68 14 L 75 16 L 82 20 L 89 9 L 96 16 L 103 9 L 110 9 L 117 19 L 124 15 L 131 12 L 138 8 L 145 18 L 152 22 L 159 18 L 166 11 L 173 13 L 180 11 L 187 12 L 194 21 L 201 20 L 208 11 L 215 10 L 222 10 L 229 11 L 236 22 L 243 13 L 250 13 L 257 18 L 264 14 L 271 21 L 278 11 L 285 14 L 292 15 L 299 16 L 306 12 L 313 22 L 320 20 L 327 21 L 334 14 L 341 10 L 348 21 L 355 18 L 362 18 L 369 9 L 376 10 L 383 8 L 390 17 L 397 14 L 404 10 L 411 20 L 418 21 L 425 17 L 432 10 L 439 11 L 446 10 L 453 21 L 460 8 L 467 22 L 474 18 L 481 11 L 488 15 L 495 20 L 502 18 L 509 22 L 516 22 L 523 14 L 530 10 L 537 17 L 544 16 L 551 20 L 558 8 L 565 17 L 572 11 L 579 19 L 586 17 L 593 20 L 600 22 L 607 16 L 614 19 L 621 12 L 628 19 L 635 17 L 642 13 L 649 16 L 656 18 L 663 13 L 670 16 L 677 21 L 684 13 L 685 12 L 686 19 L 680 26 L 692 33 L 679 40 L 691 47 L 678 54 L 688 61 L 682 68 L 686 75 L 688 82 L 689 89 L 679 96 L 679 103 L 678 110 L 681 117 L 681 124 L 686 131 L 680 138 L 678 145 L 684 152 L 680 159 L 685 166 L 678 173 L 683 180 L 688 187 L 690 194 L 692 201 L 682 208 L 683 215 L 679 222 L 687 229 L 690 236 L 692 243 L 680 250 L 688 257 L 681 264 L 681 271 L 691 278 L 681 285 L 692 292 L 680 299 L 683 306 L 678 313 L 689 320 L 678 327 L 688 334 L 684 341 L 683 348 L 689 355 L 682 362 L 680 369 L 681 376 L 681 383 L 683 390 L 687 397 L 687 404 L 685 411 L 692 418 L 681 425 L 691 432 L 685 439 L 689 446 L 679 453 L 684 460 L 691 467 L 681 474 L 683 481 L 689 488 L 692 495 L 686 502 L 688 509 L 681 500 L 674 508 L 667 497 L 660 511 L 653 498 L 646 507 L 639 511 L 632 497 L 625 511 L 618 506 L 611 505 L 604 507 L 597 509 L 590 511 L 583 508 L 576 506 L 569 510 L 562 509 L 555 504 L 548 510 L 541 500 L 534 511 L 527 499 L 520 497 L 513 498 L 506 502 L 499 498 L 492 506 L 485 504 L 478 499 L 471 508 L 464 506 L 457 499 L 450 510 L 443 504 L 436 500 L 429 504 L 422 509 L 415 506 L 408 505 L 401 511 L 394 500 L 387 504 L 380 512 L 373 504 L 366 503 L 359 511 L 352 512 L 345 503 L 338 505 L 331 500 L 324 512 L 317 510 L 310 505 L 303 503 L 296 512 L 289 510 L 282 501 L 275 502 L 268 498 L 261 511 L 254 507 L 247 510 L 240 512 L 233 501 L 226 508 L 219 507 L 212 512 L 205 512 L 198 502 L 191 500 L 184 507 L 177 500 L 170 500 L 163 498 L 156 506 L 149 506 L 142 507 L 135 504 L 128 510 L 121 498 L 114 508 L 107 499 L 100 509 L 93 503 L 86 508 L 79 509 L 72 505 L 65 511 L 58 500 L 51 498 L 44 499 L 37 501 L 30 510 L 23 510 L 16 511 L 22 508 L 15 501 L 14 494 L 8 487 L 17 480 L 10 473 L 15 466 L 9 459 L 19 452 L 9 445 L 12 438 L 18 431 L 18 424 L 9 417 L 16 410 L 17 403 L 21 396 L 10 389 L 10 382 L 20 375 L 16 368 L 17 361 L 10 354 L 10 347 L 13 340 L 19 333 L 17 326 L 14 319 L 19 312 L 22 305 L 19 298 L 9 291 L 18 284 L 21 277 L 15 270 L 21 263 L 13 256 L 9 249 L 18 242 L 22 235 L 22 228 L 20 221 L 15 214 L 22 207 L 21 200 L 12 193 L 11 186 L 19 179 L 20 172 L 20 165 L 22 158 L 13 151 L 11 144 L 8 137 L 22 130 L 8 123 L 11 116 L 16 109 L 9 102 L 16 95 L 9 88 L 10 81 L 15 74 L 18 67 L 22 60 L 8 53 L 19 46 L 15 39 L 13 32 L 16 25 L 15 18 Z M 26 63 A 6.5 7 0 1 0 13 63 A 6.5 7 0 1 0 26 63 Z M 26 139 A 6.5 7 0 1 0 13 139 A 6.5 7 0 1 0 26 139 Z M 26 215 A 6.5 7 0 1 0 13 215 A 6.5 7 0 1 0 26 215 Z M 26 291 A 6.5 7 0 1 0 13 291 A 6.5 7 0 1 0 26 291 Z M 26 367 A 6.5 7 0 1 0 13 367 A 6.5 7 0 1 0 26 367 Z M 26 443 A 6.5 7 0 1 0 13 443 A 6.5 7 0 1 0 26 443 Z"/></svg>
